<svg height="512pt" viewBox="-23 0 512 512" width="512pt" xmlns="http://www.w3.org/2000/svg"><path d="m392.144531 203.386719 59.882813-59.882813-143.503906-143.503906v97.144531c-48.433594 5.195313-93.226563 27.066407-127.390626 62.472657-12.816406 13.285156-23.664062 28-32.40625 43.769531h-148.726562v308.613281h465.355469v-308.613281zm-189.414062-22.925781c32.128906-33.300782 75.230469-52.609376 121.371093-54.371094l14.433594-.550782v-53.078124l71.042969 71.042968-71.042969 71.042969v-55.339844l-15.664062.6875c-47.382813 2.070313-91.601563 22.09375-124.511719 56.382813-22.207031 23.136718-37.699219 51.164062-45.464844 81.546875 1.546875-44.046875 19.105469-85.511719 49.835938-117.363281zm105.792969 10.898437v12.027344h-41c12.964843-5.875 26.742187-9.941407 41-12.027344zm126.820312 290.625h-405.328125v-248.585937h105.085937c-8.09375 22.433593-30.199218 113.148437 39.371094 185.769531 0 0-31.566406-97.953125 45.542969-182.105469 1.164063-1.273438 2.414063-2.460938 3.640625-3.664062h84.867188v53.609374l53.605468-53.609374h73.214844zm0 0"/></svg>