<svg enable-background="new 0 0 256 256" height="512" viewBox="0 0 256 256" width="512" xmlns="http://www.w3.org/2000/svg"><path d="m157.959 96.556c0-.837-.678-1.515-1.515-1.515h-9.159c-.837 0-1.515-.678-1.515-1.515v-8.05c0-.837.678-1.515 1.515-1.515h9.159c.837 0 1.515-.678 1.515-1.515v-9.158c0-.837.678-1.515 1.515-1.515h8.05c.837 0 1.515.678 1.515 1.515v9.158c0 .837.678 1.515 1.515 1.515h1.187c5.594-8.358 8.86-18.406 8.86-29.218 0-29.052-23.551-52.603-52.603-52.603s-52.601 23.549-52.601 52.601 23.551 52.603 52.603 52.603c11.136 0 21.457-3.47 29.959-9.374z" fill="#facb35"/><path d="m108.953 42.436c.386 0 .763.033 1.133.09v-.836c0-.004 0-.008 0-.012.001-.594.558-1.032 1.14-.91 3.199.669 12.713 1.814 19.162-6.296.353-.444 1.008-.486 1.413-.089 1.485 1.456 5.35 4.363 12.686 4.578.501.015.902.427.912.928.002.092.003.184.003.276v2.362c.37-.057.747-.09 1.133-.09 1.987 0 3.787.79 5.113 2.069v-13.26c0-5.547-4.539-10.086-10.086-10.086-1.882 0-3.641.532-5.152 1.438-1.766-2.947-4.983-4.937-8.65-4.937h-5.179c-10.024 0-18.226 8.202-18.226 18.226v8.167c1.259-1.011 2.857-1.618 4.598-1.618z" fill="#843418"/><path d="m157.959 96.556c0-.837-.678-1.515-1.515-1.515h-9.159c-.837 0-1.515-.678-1.515-1.515v-8.05c0-.837.678-1.515 1.515-1.515h3.765l-6.666-1.678-8.249-4.067-3.79 7.82c-.282.582-.871.951-1.517.951-.168 0-5.957 0-5.921 0-.663 0-1.265-.389-1.538-.994l-3.503-7.777-8.249 4.067-13.713 3.452c-2.957.744-5.087 3.325-5.257 6.37l-.064 1.53c9.347 8.517 21.775 13.711 35.417 13.711 11.134 0 21.458-3.462 29.959-9.365z" fill="#1387ce"/><g fill="#f9c1a8"><path d="m146.534 42.436c-.386 0-.763.034-1.133.092v1.195 12.17c0 .398-.018.792-.044 1.184.384.062.776.103 1.178.103 4.071 0 7.372-3.301 7.372-7.372s-3.302-7.372-7.373-7.372z"/><path d="m110.086 42.528c-.37-.057-.747-.092-1.133-.092-4.072 0-7.372 3.301-7.372 7.372s3.301 7.372 7.372 7.372c.402 0 .793-.041 1.178-.103-.062-.918-.045.043-.045-14.549z"/><path d="m130.388 34.47c-6.449 8.11-15.963 6.966-19.162 6.296-.581-.122-1.139.316-1.14.91v.012 14.204c0 9.712 7.946 17.657 17.657 17.657 9.712 0 17.658-7.946 17.658-17.657v-15.728c0-.092-.001-.184-.003-.276-.01-.501-.411-.914-.912-.928-7.335-.215-11.2-3.122-12.686-4.578-.405-.398-1.059-.356-1.412.088z"/><path d="m127.743 73.551c-2.827 0-5.503-.677-7.878-1.872v6.535l3.503 7.777c.272.605.874.994 1.538.994h5.921c.646 0 1.236-.369 1.517-.951l3.79-7.819v-6.799c-2.499 1.36-5.359 2.135-8.391 2.135z"/></g><path d="m179.714 83.959h-9.159c-.837 0-1.515-.678-1.515-1.515v-9.158c0-.837-.678-1.515-1.515-1.515h-8.05c-.837 0-1.515.678-1.515 1.515v9.158c0 .837-.678 1.515-1.515 1.515h-9.159c-.837 0-1.515.678-1.515 1.515v8.05c0 .837.678 1.515 1.515 1.515h9.159c.837 0 1.515.678 1.515 1.515v9.158c0 .837.678 1.515 1.515 1.515h8.05c.837 0 1.515-.678 1.515-1.515v-9.158c0-.837.678-1.515 1.515-1.515h9.159c.837 0 1.515-.678 1.515-1.515v-8.05c.001-.836-.678-1.515-1.515-1.515z" fill="#fc3850"/><path d="m159.699 239.674c0-7.604-6.222-13.826-13.826-13.826h-35.745c-7.604 0-13.826 6.222-13.826 13.826s6.222 13.826 13.826 13.826h35.745c7.604 0 13.826-6.222 13.826-13.826z" fill="#45bdf0"/><path d="m180 135.5h-104c-6.325 0-11.5 5.175-11.5 11.5s5.175 11.5 11.5 11.5h104c6.325 0 11.5-5.175 11.5-11.5s-5.175-11.5-11.5-11.5z" fill="#c5e3ff"/><path d="m180 185.5h-104c-6.325 0-11.5 5.175-11.5 11.5s5.175 11.5 11.5 11.5h104c6.325 0 11.5-5.175 11.5-11.5s-5.175-11.5-11.5-11.5z" fill="#c5e3ff"/><path d="m145.872 256h-35.745c-9.002 0-16.326-7.324-16.326-16.326s7.324-16.327 16.326-16.327h35.745c9.002 0 16.326 7.324 16.326 16.327s-7.324 16.326-16.326 16.326zm-35.745-27.653c-6.245 0-11.326 5.081-11.326 11.327 0 6.245 5.081 11.326 11.326 11.326h35.745c6.245 0 11.326-5.081 11.326-11.326 0-6.246-5.081-11.327-11.326-11.327z"/><path d="m105.5 126h-35c-1.381 0-2.5-1.119-2.5-2.5s1.119-2.5 2.5-2.5h35c1.381 0 2.5 1.119 2.5 2.5s-1.119 2.5-2.5 2.5z"/><path d="m180 161h-104c-7.72 0-14-6.28-14-14s6.28-14 14-14h104c7.72 0 14 6.28 14 14s-6.28 14-14 14zm-104-23c-4.962 0-9 4.038-9 9s4.038 9 9 9h104c4.963 0 9-4.038 9-9s-4.037-9-9-9z"/><path d="m105.5 176h-35c-1.381 0-2.5-1.119-2.5-2.5s1.119-2.5 2.5-2.5h35c1.381 0 2.5 1.119 2.5 2.5s-1.119 2.5-2.5 2.5z"/><path d="m180 211h-104c-7.72 0-14-6.28-14-14s6.28-14 14-14h104c7.72 0 14 6.28 14 14s-6.28 14-14 14zm-104-23c-4.962 0-9 4.038-9 9s4.038 9 9 9h104c4.963 0 9-4.038 9-9s-4.037-9-9-9z"/><path d="m128 109.844c-30.384 0-55.103-24.719-55.103-55.103s24.719-55.103 55.103-55.103 55.104 24.719 55.104 55.103c0 10.951-3.21 21.535-9.283 30.609-.464.693-1.243 1.109-2.077 1.109h-1.188c-2.214 0-4.015-1.801-4.015-4.016v-8.173h-6.082v8.173c0 2.214-1.801 4.016-4.015 4.016h-8.174v6.081h8.174c2.214 0 4.015 1.801 4.015 4.015v1.415c0 .819-.401 1.586-1.074 2.053-9.251 6.425-20.104 9.821-31.385 9.821zm0-105.206c-27.627 0-50.103 22.476-50.103 50.103s22.476 50.103 50.103 50.103c9.26 0 18.203-2.517 26.042-7.304h-6.757c-2.214 0-4.015-1.801-4.015-4.015v-8.051c0-2.214 1.801-4.015 4.015-4.015h8.174v-8.174c0-2.214 1.802-4.015 4.016-4.015h8.051c2.214 0 4.016 1.801 4.016 4.015v6.254c4.304-7.535 6.562-16.037 6.562-24.799 0-27.626-22.477-50.102-50.104-50.102zm29.959 93.332h.01z"/><path d="m146.534 59.68c-.498 0-1.014-.044-1.576-.135-1.274-.206-2.183-1.348-2.096-2.636.022-.336.038-.674.038-1.016v-13.366c0-1.233.899-2.283 2.118-2.471.526-.081 1.021-.121 1.516-.121 5.443 0 9.872 4.429 9.872 9.872s-4.428 9.873-9.872 9.873zm1.366-14.549v9.354c2.023-.592 3.506-2.465 3.506-4.677s-1.482-4.085-3.506-4.677z"/><path d="m108.953 59.68c-5.443 0-9.872-4.429-9.872-9.872s4.429-9.872 9.872-9.872c.494 0 .989.04 1.515.121 1.219.188 2.119 1.237 2.119 2.471v13.366c0 .342.016.68.039 1.016.087 1.288-.821 2.43-2.096 2.636-.564.09-1.08.134-1.577.134zm-1.367-14.549c-2.023.592-3.505 2.464-3.505 4.677s1.482 4.085 3.505 4.677z"/><path d="m127.743 76.051c-11.115 0-20.157-9.042-20.157-20.158v-14.204c.001-1.049.463-2.017 1.269-2.671.811-.659 1.862-.914 2.883-.699 3.194.667 11.218 1.479 16.694-5.406.609-.765 1.517-1.239 2.492-1.299.974-.061 1.931.297 2.628.982 1.12 1.097 4.435 3.671 11.009 3.864 1.836.054 3.302 1.538 3.338 3.378l.003.325v15.729c-.002 11.116-9.045 20.159-20.159 20.159zm-15.157-32.529v12.371c0 8.358 6.799 15.158 15.157 15.158 8.357 0 15.157-6.8 15.157-15.158v-14.516c-5.758-.455-9.46-2.452-11.606-4.126-6.232 6.738-14.472 6.8-18.708 6.271zm19.759-7.496c-.001.001-.001.001 0 0z"/><path d="m151.648 47.004c-.636 0-1.261-.242-1.736-.7-1.09-1.051-2.53-1.559-4.127-1.308-.721.112-1.456-.096-2.011-.571s-.874-1.169-.874-1.899v-1.149c-5.758-.455-9.46-2.452-11.606-4.126-6.33 6.844-14.731 6.798-18.904 6.246-.149.354-.379.672-.678.928-.555.476-1.289.683-2.011.571-1.434-.224-2.723.158-3.786 1.008-.75.6-1.778.717-2.645.301-.866-.417-1.417-1.292-1.417-2.253v-8.167c0-11.428 9.298-20.726 20.726-20.726h5.179c3.616 0 7.063 1.603 9.435 4.293 1.397-.523 2.876-.795 4.367-.795 6.94 0 12.587 5.646 12.587 12.586v13.26c0 1.003-.6 1.909-1.522 2.301-.315.135-.647.2-.977.2zm-3.749-6.974c.423.059.84.145 1.248.257v-9.042c0-4.183-3.403-7.586-7.587-7.586-1.349 0-2.686.374-3.867 1.082-.569.341-1.25.441-1.893.281-.644-.162-1.196-.571-1.537-1.14-1.375-2.296-3.868-3.722-6.505-3.722h-5.179c-8.671 0-15.726 7.055-15.726 15.726v4.278c.39-.085.786-.147 1.184-.185.208-.363.483-.689.817-.96.811-.659 1.862-.914 2.883-.699 3.194.667 11.218 1.479 16.694-5.406.609-.766 1.517-1.239 2.492-1.299.974-.061 1.931.297 2.628.982 1.12 1.097 4.435 3.671 11.009 3.864 1.832.054 3.299 1.536 3.338 3.374z"/><path d="m128 99.81c-1.358 0-2.5-1.083-2.5-2.5 0-.645.259-1.291.73-1.76 1.49-1.49 4.27-.519 4.27 1.76 0 1.385-1.115 2.5-2.5 2.5z"/><path d="m130.827 89.484h-5.921c-1.644 0-3.142-.968-3.817-2.467l-3.503-7.776c-.146-.323-.221-.673-.221-1.027v-6.535c0-.868.45-1.673 1.188-2.128.738-.457 1.66-.496 2.435-.105 2.119 1.065 4.391 1.605 6.755 1.605 2.507 0 4.995-.633 7.196-1.832.774-.421 1.714-.404 2.473.046.758.451 1.223 1.268 1.223 2.149v6.799c0 .378-.086.75-.25 1.09l-3.79 7.819c-.697 1.436-2.175 2.362-3.768 2.362zm-5.395-5h4.885l3.317-6.844v-2.477c-3.657 1.123-7.641 1.17-11.27.155v2.358z"/><path d="m120.267 62.134c-.773-1.144-.472-2.698.673-3.471 1.144-.772 2.699-.471 3.471.673 1.719 2.544 5.461 2.544 7.181-.001.774-1.145 2.331-1.443 3.471-.671 1.145.773 1.445 2.327.672 3.471-3.698 5.47-11.764 5.485-15.468-.001z"/><path d="m121.27 52.31c-1.385 0-2.5-1.128-2.5-2.5 0-1.586 1.444-2.752 2.99-2.45 1.093.203 2.01 1.193 2.01 2.45 0 1.344-1.099 2.5-2.5 2.5z"/><path d="m134.729 52.31c-1.383 0-2.5-1.128-2.5-2.5 0-3.28 5-3.255 5 0 0 1.424-1.157 2.5-2.5 2.5z"/><path d="m128 109.844c-13.759 0-26.936-5.101-37.101-14.363-.547-.499-.845-1.213-.814-1.953l.064-1.53c.234-4.195 3.104-7.673 7.145-8.689l13.455-3.387 8.011-3.95c.607-.3 1.311-.34 1.95-.111.638.229 1.156.708 1.435 1.326l3.288 7.297h4.885l3.567-7.36c.291-.6.809-1.058 1.438-1.274s1.32-.172 1.917.123l8.011 3.95 6.409 1.613c1.224.308 2.025 1.479 1.871 2.732-.155 1.252-1.22 2.192-2.481 2.192h-2.779v6.081h8.174c2.214 0 4.015 1.801 4.015 4.015v1.424c0 .819-.401 1.586-1.074 2.054-9.245 6.418-20.098 9.81-31.386 9.81zm-32.87-17.29c9.119 7.934 20.746 12.291 32.87 12.291 9.271 0 18.219-2.517 26.057-7.304h-6.771c-2.214 0-4.015-1.801-4.015-4.015v-8.051c0-.312.036-.615.104-.906-.032-.014-.064-.029-.096-.044l-5.991-2.954-2.692 5.554c-.696 1.435-2.175 2.36-3.768 2.36h-5.921c-1.644 0-3.142-.968-3.817-2.467l-2.44-5.416-5.927 2.922c-.158.078-.324.139-.495.182l-13.713 3.452c-1.907.48-3.262 2.121-3.371 4.084zm62.829 5.425h.01z"/><path d="m167.525 109.729h-8.051c-2.214 0-4.016-1.801-4.016-4.015v-8.174h-8.174c-2.214 0-4.015-1.801-4.015-4.016v-8.05c0-2.214 1.801-4.015 4.015-4.015h8.174v-8.174c0-2.214 1.802-4.015 4.016-4.015h8.051c2.214 0 4.016 1.801 4.016 4.015v8.174h8.174c2.214 0 4.015 1.801 4.015 4.015v8.05c0 2.214-1.801 4.016-4.015 4.016h-8.174v8.174c0 2.214-1.802 4.015-4.016 4.015zm-7.066-5h6.082v-8.174c0-2.214 1.801-4.015 4.015-4.015h8.174v-6.081h-8.174c-2.214 0-4.015-1.801-4.015-4.016v-8.173h-6.082v8.173c0 2.214-1.801 4.016-4.015 4.016h-8.174v6.081h8.174c2.214 0 4.015 1.801 4.015 4.015zm19.256-18.27h.01z"/></svg>